# xmcd
#
# Track frame offsets: 
#        150
#        22311
#        42307
#        70658
#        89600
#        114410
#        139597
#        159764
#        181057
#        207251
#        230553
#        252371
#        273122
#        295428
#        315406
#
# Disc length: 4495 seconds
#
# Revision: 3
# Processed by: cddbd v1.5.2PL0 Copyright (c) Steve Scherf et al.
# Submitted via: ExactAudioCopy v1.0b3
#
DISCID=d0118d0f
DTITLE=Kishidan - KISHIDAN NYUUMON (Normal Edition)
DYEAR=2013
DGENRE=JRock
TTITLE0=One Night Carnival 2013
TTITLE1=Kuroi Taiyou (2013)
TTITLE2=Koibito (2013)
TTITLE3=Nihonjin
TTITLE4=Kira Kira! (2013)
TTITLE5=SUPER BOY FRIEND
TTITLE6=BOYS BRAVO！(2013)
TTITLE7=Asa ga Kuru Tabi (2013)
TTITLE8=Ore-tachi ni wa Doyoubi Shikanai (2013)
TTITLE9=Baby Baby Baby
TTITLE10=Rakuyou
TTITLE11=Tetsu no Heart (2013)
TTITLE12=Ai Ra Bu Yuu (2013)
TTITLE13=Arigatou Bakayarou
TTITLE14=SUPERSTAR
EXTD=
EXTT0=
EXTT1=
EXTT2=
EXTT3=
EXTT4=
EXTT5=
EXTT6=
EXTT7=
EXTT8=
EXTT9=
EXTT10=
EXTT11=
EXTT12=
EXTT13=
EXTT14=
PLAYORDER=
